<svg width="56" height="56" viewBox="0 0 56 56" fill="none" xmlns="http://www.w3.org/2000/svg">
<path d="M45.5748 0C39.821 0 35.1495 4.66074 35.1495 10.4173C35.1495 11.1431 35.2279 11.8546 35.3703 12.5377H40.7253C42.4415 12.5377 43.8301 13.9253 43.8301 15.6402V20.6709C44.3998 20.7705 44.9837 20.8274 45.5819 20.8274C51.3357 20.8274 56.0071 16.1667 56.0071 10.4102C56.0071 4.65362 51.3357 0 45.5748 0Z" fill="#FECCBC"/>
<path d="M1.21058 56.0001C1.05392 56.0001 0.897253 55.9716 0.747711 55.9076C0.291963 55.7226 0 55.2814 0 54.7904V16.8855C0 13.904 2.42828 11.4705 5.41913 11.4705H39.4791C42.4629 11.4705 44.8983 13.8969 44.8983 16.8855V38.6024C44.8983 41.5838 42.47 44.0173 39.4791 44.0173H13.708L2.06511 55.6443C1.83723 55.8791 1.52391 56.0001 1.21058 56.0001ZM5.41913 13.6051C3.61038 13.6051 2.13632 15.0781 2.13632 16.8855V52.5561L12.825 41.8755H39.4791C41.2879 41.8755 42.762 40.4026 42.762 38.5952V16.8783C42.762 15.071 41.2879 13.598 39.4791 13.598H5.41913V13.6051Z" fill="white"/>
<path d="M33.5686 24.1149H10.8311C10.2401 24.1149 9.76294 23.6382 9.76294 23.0476C9.76294 22.457 10.2401 21.9802 10.8311 21.9802H33.5686C34.1597 21.9802 34.6368 22.457 34.6368 23.0476C34.6368 23.6382 34.1597 24.1149 33.5686 24.1149Z" fill="white"/>
<path d="M25.764 34.0981H10.6247C10.0336 34.0981 9.55652 33.6213 9.55652 33.0307C9.55652 32.4401 10.0336 31.9634 10.6247 31.9634H25.764C26.3551 31.9634 26.8322 32.4401 26.8322 33.0307C26.8322 33.6213 26.3551 34.0981 25.764 34.0981Z" fill="white"/>
<path d="M33.5687 35.4786C34.9216 35.4786 36.0183 34.3827 36.0183 33.0308C36.0183 31.6789 34.9216 30.583 33.5687 30.583C32.2158 30.583 31.119 31.6789 31.119 33.0308C31.119 34.3827 32.2158 35.4786 33.5687 35.4786Z" fill="white"/>
<path d="M52.5676 31.2874C54.4632 31.2874 56 29.7519 56 27.8577C56 25.9635 54.4632 24.428 52.5676 24.428C50.672 24.428 49.1353 25.9635 49.1353 27.8577C49.1353 29.7519 50.672 31.2874 52.5676 31.2874Z" fill="#FECCBC"/>
</svg>