<svg width="56" height="56" viewBox="0 0 56 56" fill="none" xmlns="http://www.w3.org/2000/svg">
<path d="M36.0294 25.7213C35.7258 25.7213 35.4293 25.5953 35.2124 25.3433C34.8147 24.8839 34.8581 24.1799 35.3136 23.7723L47.1716 13.0866C48.5092 11.8787 49.2467 10.2929 49.2467 8.61077C49.2467 6.92862 48.5092 5.33539 47.1716 4.13492C44.3156 1.55612 39.6664 1.56353 36.8103 4.13492C36.4994 4.41651 36.391 4.5499 36.391 4.5499C36.203 4.83149 35.921 4.98711 35.5884 5.00934C35.263 5.02416 34.9521 4.88336 34.728 4.63882C34.728 4.63882 34.417 4.29795 34.2363 4.13492C31.3803 1.55612 26.7311 1.55612 23.875 4.13492C22.5374 5.34281 21.7999 6.92862 21.7999 8.61077C21.7999 10.2929 22.5374 11.8861 23.875 13.0866L30.4258 18.9927C30.8741 19.4002 30.9175 20.1042 30.5271 20.5637C30.1294 21.0231 29.4497 21.0676 28.9942 20.6674L22.4434 14.7614C20.6285 13.1311 19.6307 10.945 19.6307 8.61077C19.6307 6.27651 20.6285 4.09787 22.4434 2.46018C26.0442 -0.785553 31.8647 -0.822605 35.5233 2.3342C39.1819 -0.822605 45.0025 -0.778143 48.6032 2.46018C50.4181 4.09046 51.4159 6.27651 51.4159 8.61077C51.4159 10.945 50.4181 13.1237 48.6032 14.7614L36.7453 25.4471C36.5356 25.6323 36.2825 25.7213 36.0294 25.7213Z" fill="white"/>
<path d="M42.6742 11.9233C44.3993 11.9233 45.7978 10.49 45.7978 8.72202C45.7978 6.95401 44.3993 5.52075 42.6742 5.52075C40.9491 5.52075 39.5507 6.95401 39.5507 8.72202C39.5507 10.49 40.9491 11.9233 42.6742 11.9233Z" fill="#FECCBC"/>
<path d="M1.49674 55.9999C1.1063 55.9999 0.730314 55.785 0.535092 55.4071C0.253103 54.8661 0.455556 54.1918 0.990611 53.9028L10.2818 48.8786C10.5854 48.7156 10.9542 48.7081 11.2651 48.8638L16.6374 51.5463C18.3148 52.3837 20.1947 52.8283 22.0602 52.8283H22.9134C25.0319 52.8283 27.1505 52.317 29.0521 51.3536L51.8136 39.7713C52.6957 39.3192 53.3465 38.5411 53.6501 37.5852C53.9538 36.6219 53.8671 35.6066 53.4043 34.71C52.2763 32.5165 49.6011 31.6421 47.4392 32.7537L33.347 40.0084C32.1756 40.6086 30.8597 40.9347 29.551 40.9347H21.395C20.7949 40.9347 20.3104 40.4382 20.3104 39.8231C20.3104 39.2081 20.7949 38.7116 21.395 38.7116H29.551C30.5271 38.7116 31.5032 38.4745 32.3709 38.0224L46.4631 30.7677C49.6661 29.1152 53.6429 30.4194 55.3204 33.6725C56.0579 35.1027 56.1953 36.733 55.7108 38.267C55.2264 39.8009 54.1852 41.0458 52.7752 41.7646L30.0137 53.347C27.8157 54.466 25.3645 55.0514 22.9134 55.0514H22.0602C19.8621 55.0514 17.6568 54.5327 15.6829 53.5471L10.8024 51.1091L2.00288 55.8665C1.84381 55.9555 1.67028 55.9925 1.49674 55.9925V55.9999Z" fill="white"/>
<path d="M34.7713 39.149C34.1712 39.149 33.6867 38.6525 33.6867 38.0374C33.6867 36.1849 32.6311 34.4805 30.9898 33.7024L27.5264 32.0499C23.5713 30.1602 19.0523 30.1899 15.1189 32.1314L12.4147 33.4653C11.106 34.11 9.64542 34.4508 8.19933 34.4508H1.49668C0.896551 34.4508 0.412109 33.9543 0.412109 33.3393C0.412109 32.7242 0.896551 32.2277 1.49668 32.2277H8.19933C9.32728 32.2277 10.4552 31.961 11.4747 31.4645L14.1789 30.1306C18.698 27.9001 23.8967 27.863 28.4447 30.0343L31.9081 31.6868C34.3086 32.8354 35.8559 35.3253 35.8559 38.0374C35.8559 38.6525 35.3714 39.149 34.7713 39.149Z" fill="white"/>
<rect x="0.427856" y="33.4443" width="2.33333" height="21.7778" fill="white"/>
<rect x="8.55554" y="33.4443" width="2.33333" height="16.3333" fill="white"/>
</svg>