<svg viewBox="0 0 80 80" fill="none" xmlns="http://www.w3.org/2000/svg">
  <g>
    <path d="M21.01,66.39h-6.6c-.34,0-.63-.22-.74-.54l-2.04-6.28c-.23-.72-1.24-.72-1.48,0l-2.04,6.28c-.1.32-.4.54-.74.54H.78c-.75,0-1.06.96-.46,1.4l5.34,3.88c.27.2.39.55.28.87l-2.04,6.28c-.23.72.59,1.31,1.19.87l5.34-3.88c.27-.2.64-.2.91,0l5.34,3.88c.61.44,1.43-.15,1.19-.87l-2.04-6.28c-.1-.32,0-.67.28-.87l5.34-3.88c.61-.44.3-1.4-.46-1.4Z" fill="#ffc9b8"/>
    <path d="M54.98,60.61h-10.45c-.34,0-.63-.22-.74-.54l-3.23-9.95c-.23-.72-1.24-.72-1.48,0l-3.23,9.95c-.1.32-.4.54-.74.54h-10.45c-.75,0-1.06.96-.46,1.4l8.46,6.15c.27.2.39.55.28.87l-3.23,9.95c-.23.72.59,1.31,1.19.87l8.46-6.15c.27-.2.64-.2.91,0l8.46,6.15c.61.44,1.43-.15,1.19-.87l-3.23-9.95c-.1-.32,0-.67.28-.87l8.46-6.15c.61-.44.3-1.4-.46-1.4Z" fill="#ffc9b8"/>
    <path d="M79.68,67.79c.61-.44.3-1.4-.46-1.4h-6.6c-.34,0-.63-.22-.74-.54l-2.04-6.28c-.23-.72-1.24-.72-1.48,0l-2.04,6.28c-.1.32-.4.54-.74.54h-6.6c-.75,0-1.06.96-.46,1.4l5.34,3.88c.27.2.39.55.28.87l-2.04,6.28c-.23.72.59,1.31,1.19.87l5.34-3.88c.27-.2.64-.2.91,0l5.34,3.88c.61.44,1.43-.15,1.19-.87l-2.04-6.28c-.1-.32,0-.67.28-.87l5.34-3.88Z" fill="#ffc9b8"/>
  </g>
  <g>
    <path d="M11.28,31.74c0-15.85,12.88-28.74,28.72-28.74,4.83,0,9.61,1.22,13.81,3.54.73.4,1.64.14,2.04-.59.4-.73.13-1.64-.59-2.04-4.65-2.56-9.92-3.91-15.26-3.91C22.51,0,8.28,14.24,8.28,31.74c0,8.97,3.82,17.55,10.47,23.56.29.26.65.39,1,.39.41,0,.82-.17,1.11-.5.56-.61.51-1.56-.11-2.12-6.03-5.44-9.48-13.22-9.48-21.34Z" fill="white"/>
    <path d="M70.53,23.11c-.22-.8-1.05-1.26-1.85-1.04-.8.23-1.26,1.05-1.04,1.85.71,2.53,1.07,5.16,1.07,7.81,0,8.12-3.46,15.89-9.48,21.34-.61.56-.66,1.5-.11,2.12.3.33.7.49,1.11.49.36,0,.72-.13,1-.39,6.65-6.01,10.47-14.6,10.47-23.56,0-2.93-.4-5.84-1.19-8.63Z" fill="white"/>
    <path d="M64.15,11.2c-.63-.54-1.58-.46-2.11.17l-24.79,29.04-11.1-12.6c-.55-.62-1.49-.68-2.12-.13-.62.55-.68,1.5-.13,2.12l12.24,13.9c.28.32.69.51,1.12.51h.01c.43,0,.85-.2,1.13-.53l25.92-30.36c.54-.63.46-1.58-.17-2.11Z" fill="white"/>
  </g>
</svg>