<svg viewBox="0 0 80 80" fill="none" xmlns="http://www.w3.org/2000/svg">
  <ellipse cx="65.75" cy="57.79" rx="5.85" ry="5.76" fill="#ffc9b8"/>
  <g>
    <path d="M20.43,44.36C7.83,51.22,0,64.27,0,78.43c0,.83.68,1.5,1.52,1.5s1.52-.67,1.52-1.5c0-13.07,7.23-25.12,18.86-31.45.74-.4,1-1.31.6-2.04-.41-.73-1.33-.99-2.07-.59Z" fill="white"/>
    <path d="M75.65,48.03c-2.81-2.81-6.56-4.36-10.54-4.36s-7.58,1.49-10.37,4.2c-2.79-2.71-6.47-4.2-10.37-4.2s-7.73,1.55-10.54,4.36c-5.79,5.79-5.79,15.22,0,21.02l10.51,10.51c.3.3.69.45,1.08.45s.77-.14,1.07-.43c.60-.58.61-1.53.02-2.12l-10.51-10.51c-4.63-4.63-4.63-12.17,0-16.81,2.24-2.24,5.21-3.47,8.37-3.47s6.13,1.23,8.37,3.47c.21.21.61.68.82.93.30.37.77.55,1.26.54.48-.02.94-.28,1.21-.68,0,0,.18-.25.72-.79,2.24-2.24,5.21-3.47,8.37-3.47s6.13,1.23,8.37,3.47c4.63,4.63,4.63,12.17,0,16.81l-10.49,10.48c-.59.59-.58,1.54.02,2.12.60.58,1.56.57,2.15-.02l10.49-10.48c5.79-5.79,5.79-15.22,0-21.02Z" fill="white"/>
    <path d="M30.41,42.06c.41-.72.14-1.64-.59-2.04-6.39-3.48-10.36-10.1-10.36-17.28,0-10.88,8.99-19.74,20.05-19.74s20.05,8.85,20.05,19.74c0,5.57-2.41,10.9-6.6,14.64-.62.56-.67,1.5-.11,2.12.56.61,1.53.66,2.15.11,4.83-4.3,7.6-10.45,7.6-16.86C62.6,10.2,52.24,0,39.51,0s-23.09,10.2-23.09,22.73c0,8.27,4.57,15.9,11.93,19.91.23.13.49.19.74.19.54,0,1.06-.28,1.33-.77Z" fill="white"/>
  </g>
</svg>